<svg width="300" height="200" viewBox="0 0 300 200" fill="none" xmlns="http://www.w3.org/2000/svg">
<path fill-rule="evenodd" clip-rule="evenodd" d="M2.70844 70.1135C2.70844 70.8567 2.10576 71.4594 1.36263 71.4594C0.619501 71.4594 0.016795 70.8567 0.016795 70.1135V64.3196C0.016795 62.3067 0.902904 60.4613 2.33192 59.1248C3.72914 57.8179 5.64611 57 7.75008 57H60.2274C60.9705 57 61.5732 57.6027 61.5732 58.3458C61.5732 59.089 60.9705 59.6916 60.2274 59.6916H7.75008C6.34345 59.6916 5.07496 60.2267 4.16163 61.0807C3.26459 61.9195 2.70844 63.0707 2.70844 64.3196V70.1135V70.1135ZM38.6603 70.7793H72.4882V83.093H57.2989V119.697H44.9852V83.093C44.9832 78.0394 42.4839 73.544 38.6603 70.7793ZM72.4882 107.383H76.056V70.7793C82.8282 70.7793 88.3692 76.3265 88.3692 83.0928V107.384C88.3692 114.153 82.8282 119.697 76.056 119.697H72.4882C65.7188 119.697 60.1745 114.156 60.1745 107.384V86.6163H72.4882V107.383V107.383ZM26.6001 107.383H29.7954V83.093H26.6001V107.383ZM29.7954 119.697H14.2866V70.7793H29.7954C36.5676 70.7793 42.1086 76.3265 42.1086 83.0928V107.384C42.1086 114.153 36.5676 119.697 29.7954 119.697V119.697ZM44.9852 73.4718H44.8369C45.1498 73.9584 45.4399 74.4611 45.7055 74.9784C46.5682 76.6585 47.1739 78.4836 47.4695 80.4006H47.6777V117.005H54.6065V80.4006H69.7958V73.4718H44.9852V73.4718ZM76.056 110.076H69.7958V89.3087H62.8669V107.384C62.8669 110.026 63.951 112.431 65.6957 114.175C67.4412 115.921 69.8461 117.005 72.4877 117.005H76.056C78.6981 117.005 81.103 115.921 82.8477 114.176C84.5932 112.43 85.6768 110.025 85.6768 107.384V83.0928C85.6768 80.4522 84.593 78.0471 82.847 76.301C81.7184 75.1725 80.3143 74.3205 78.7484 73.8592V110.076H76.056V110.076ZM29.7954 110.076H23.9076V80.4006H32.4879V110.076H29.7954ZM26.6001 117.005H29.7954C32.4375 117.005 34.8424 115.921 36.5872 114.176C38.3327 112.43 39.4162 110.025 39.4162 107.384V83.0928C39.4162 80.4522 38.3324 78.0471 36.5864 76.301C34.8414 74.556 32.4372 73.4718 29.7954 73.4718H16.9791V117.005H26.6001V117.005ZM75.0364 59.6916C74.2932 59.6916 73.6905 59.089 73.6905 58.3458C73.6905 57.6027 74.2932 57 75.0364 57H106.478C108.587 57 110.511 57.8024 111.91 59.0941C113.34 60.4139 114.228 62.2418 114.228 64.2573V119.808C114.228 121.203 113.878 122.28 113.11 123.423C112.43 124.435 111.447 125.439 110.068 126.807C108.883 127.982 107.508 129.385 106.062 130.861C103.238 133.741 100.142 136.901 97.5966 139.25C96.4243 140.332 94.8378 141.223 93.2406 141.864C91.3898 142.606 89.4815 143.026 88.1621 143.026H75.0364C74.2932 143.026 73.6905 142.424 73.6905 141.68C73.6905 140.937 74.2932 140.335 75.0364 140.335H88.1621C89.1785 140.335 90.7095 139.987 92.2418 139.372C93.5642 138.842 94.8571 138.123 95.7776 137.274C98.3031 134.942 101.36 131.823 104.148 128.979C105.598 127.499 106.976 126.094 108.175 124.904C109.446 123.644 110.343 122.731 110.881 121.93C111.331 121.26 111.536 120.628 111.536 119.808V64.2573C111.536 63.0226 110.983 61.8938 110.091 61.0708C109.17 60.2203 107.891 59.6916 106.478 59.6916H75.0364V59.6916ZM60.2274 140.335C60.9705 140.335 61.5732 140.937 61.5732 141.68C61.5732 142.424 60.9705 143.026 60.2274 143.026H7.72389V143.021C5.62069 143.013 3.70346 142.214 2.31234 140.931C0.886633 139.617 0 137.797 0 135.79V135.769H0.00534161L0.0221366 131.274C0.0221366 130.534 0.622554 129.934 1.36263 129.934C2.10271 129.934 2.7031 130.534 2.7031 131.274L2.68631 135.769H2.69167V135.79C2.69167 137.015 3.24399 138.136 4.13137 138.954C5.05335 139.805 6.32642 140.335 7.72389 140.34V140.335H60.2274Z" fill="url(#paint0_radial_609_92)"/>
<path d="M126.066 80.3149V69.6994H130.067C130.737 69.7045 131.356 69.8055 131.925 70.0026C132.493 70.1998 132.979 70.4702 133.381 70.8088C133.782 71.15 134.126 71.5469 134.412 71.9967C134.698 72.4493 134.907 72.9293 135.041 73.4374C135.175 73.9455 135.241 74.4688 135.241 75.0071C135.241 75.5454 135.175 76.0685 135.041 76.5765C134.91 77.0846 134.7 77.5649 134.414 78.0173C134.129 78.4673 133.785 78.8639 133.383 79.2054C132.984 79.544 132.498 79.8144 131.93 80.0116C131.361 80.2088 130.742 80.3098 130.072 80.3149H126.066V80.3149ZM128.78 77.843H130.072C130.481 77.843 130.853 77.7621 131.182 77.5978C131.51 77.436 131.778 77.2212 131.983 76.9533C132.188 76.688 132.344 76.3845 132.453 76.0484C132.562 75.7098 132.617 75.3635 132.617 75.0071C132.617 74.6507 132.562 74.3044 132.453 73.9658C132.344 73.6295 132.188 73.3262 131.983 73.0609C131.778 72.793 131.51 72.578 131.182 72.4165C130.853 72.2521 130.481 72.1712 130.072 72.1712H128.78V77.843V77.843ZM137.313 80.3149V69.6994H143.94V72.1256H140.028V73.6119H143.622V76.0382H140.028V77.8885H144.077V80.3149H137.313V80.3149ZM145.771 75.0071C145.776 74.307 145.879 73.6575 146.084 73.0583C146.289 72.4617 146.567 71.9539 146.913 71.5341C147.262 71.1146 147.669 70.7534 148.131 70.4549C148.596 70.1568 149.089 69.937 149.61 69.7927C150.131 69.6487 150.664 69.578 151.212 69.578C151.662 69.578 152.104 69.6261 152.537 69.722C152.972 69.8182 153.394 69.9723 153.803 70.1845C154.213 70.3969 154.579 70.6572 154.902 70.9655C155.226 71.2739 155.504 71.6555 155.737 72.1106C155.969 72.563 156.123 73.0634 156.204 73.6119H153.538C153.171 72.5706 152.398 72.0498 151.212 72.0498C150.419 72.0498 149.779 72.3203 149.299 72.8637C148.816 73.4071 148.576 74.12 148.576 75.002C148.576 75.5251 148.682 76.0105 148.895 76.4529C149.107 76.8976 149.415 77.2566 149.825 77.5321C150.232 77.8051 150.694 77.944 151.212 77.9491C151.804 77.9491 152.312 77.8051 152.734 77.5143C153.156 77.2238 153.439 76.8017 153.581 76.2507H156.247C156.174 76.832 156.022 77.3576 155.792 77.8303C155.562 78.303 155.284 78.6973 154.958 79.0156C154.632 79.3316 154.263 79.5972 153.848 79.8119C153.434 80.0266 153.007 80.1808 152.567 80.2769C152.127 80.3731 151.677 80.4209 151.212 80.4209C151.192 80.4209 151.174 80.4209 151.159 80.4209C150.628 80.4209 150.108 80.3527 149.605 80.2138C149.082 80.0696 148.589 79.8498 148.129 79.5542C147.666 79.2583 147.262 78.8993 146.913 78.4798C146.567 78.0603 146.289 77.5522 146.084 76.9559C145.879 76.3567 145.776 75.7072 145.771 75.0071V75.0071ZM158.322 80.3149V69.6994H164.949V72.1256H161.037V73.6119H164.631V76.0382H161.037V77.8885H165.086V80.3149H158.322V80.3149ZM167.416 80.3149V69.6538H168.402L173.771 74.9036V69.6994H176.546V80.3301H175.575L170.222 75.0956V80.3149H167.416V80.3149ZM178.196 72.1256V69.6994H186.082V72.1256H183.489V80.3149H180.805V72.1256H178.196V72.1256ZM187.743 80.3149V69.6994H192.403C192.906 69.6994 193.374 69.7726 193.804 69.9217C194.233 70.0682 194.597 70.268 194.893 70.5183C195.191 70.7658 195.444 71.0592 195.656 71.3952C195.863 71.7339 196.013 72.0877 196.101 72.4518C196.179 72.7726 196.22 73.1039 196.22 73.445C196.22 73.4931 196.22 73.5437 196.22 73.5916C196.21 73.9859 196.144 74.3601 196.023 74.7163C195.901 75.0727 195.722 75.4114 195.487 75.7324C195.252 76.0509 194.971 76.3214 194.643 76.5437L196.725 79.9205V80.3149H193.685L191.862 77.1757H190.457V80.3149H187.743V80.3149ZM190.457 74.7491H192.396C192.598 74.7491 192.78 74.7013 192.939 74.6051C193.101 74.5092 193.222 74.3828 193.306 74.2312C193.394 74.0821 193.46 73.9152 193.498 73.7256C193.523 73.6269 193.536 73.5285 193.536 73.43C193.541 73.3415 193.533 73.2529 193.513 73.1644C193.475 72.9749 193.412 72.8057 193.329 72.6515C193.245 72.4996 193.121 72.3735 192.959 72.2747C192.795 72.1763 192.608 72.1256 192.396 72.1256C192.209 72.1206 192.007 72.118 191.789 72.118C191.572 72.118 191.332 72.1206 191.069 72.1231C190.804 72.1257 190.601 72.1256 190.457 72.1256V74.7491V74.7491ZM197.486 80.3149V79.9256L202.263 69.5627H203.431L208.223 79.9256V80.3149H205.572L204.95 78.9955H200.759L200.138 80.3149H197.486ZM201.654 76.645H204.053L202.84 73.8595L201.654 76.645ZM209.601 80.3149V69.6994H212.315V77.8885H216.182V80.3149H209.601ZM217.163 80.3149V77.9338H218.513V72.0651H217.284V69.6994H222.425V72.0651H221.197V77.9338H222.547V80.3149H217.163ZM223.312 80.3149V79.9078L227.65 72.1256H223.704V69.6994H231.747V70.1138L227.392 77.8885H231.79V80.3149H223.312V80.3149ZM233.577 80.3149V69.6994H240.204V72.1256H236.291V73.6119H239.885V76.0382H236.291V77.8885H240.34V80.3149H233.577V80.3149ZM242.671 80.3149V69.6994H246.672C247.342 69.7045 247.961 69.8055 248.53 70.0026C249.098 70.1998 249.584 70.4702 249.986 70.8088C250.387 71.15 250.731 71.5469 251.017 71.9967C251.302 72.4493 251.512 72.9293 251.646 73.4374C251.78 73.9455 251.846 74.4688 251.846 75.0071C251.846 75.5454 251.78 76.0685 251.646 76.5765C251.515 77.0846 251.305 77.5649 251.019 78.0173C250.733 78.4673 250.39 78.8639 249.988 79.2054C249.589 79.544 249.103 79.8144 248.535 80.0116C247.966 80.2088 247.347 80.3098 246.677 80.3149H242.671V80.3149ZM245.385 77.843H246.677C247.086 77.843 247.458 77.7621 247.786 77.5978C248.115 77.436 248.383 77.2212 248.588 76.9533C248.792 76.688 248.949 76.3845 249.058 76.0484C249.167 75.7098 249.222 75.3635 249.222 75.0071C249.222 74.6507 249.167 74.3044 249.058 73.9658C248.949 73.6295 248.792 73.3262 248.588 73.0609C248.383 72.793 248.115 72.578 247.786 72.4165C247.458 72.2521 247.086 72.1712 246.677 72.1712H245.385V77.843V77.843ZM125.02 90.2076V87.7813H132.905V90.2076H130.312V98.3968H127.628V90.2076H125.02V90.2076ZM134.581 98.3968V87.7813H141.208V90.2076H137.296V91.6938H140.89V94.1201H137.296V95.9705H141.345V98.3968H134.581V98.3968ZM143.66 98.3968V87.7813H146.375V95.9705H150.242V98.3968H143.66ZM152.102 98.3968V87.7813H158.729V90.2076H154.816V91.6938H158.411V94.1201H154.816V95.9705H158.866V98.3968H152.102V98.3968ZM160.559 93.089C160.564 92.3889 160.668 91.7394 160.873 91.1402C161.077 90.5436 161.355 90.0358 161.702 89.6161C162.05 89.1965 162.457 88.8353 162.92 88.5369C163.385 88.2387 163.878 88.0189 164.399 87.8746C164.919 87.7306 165.452 87.6599 166.001 87.6599C166.451 87.6599 166.893 87.708 167.325 87.8039C167.76 87.9001 168.182 88.0542 168.592 88.2664C169.001 88.4789 169.368 88.7391 169.691 89.0475C170.015 89.3558 170.293 89.7374 170.525 90.1926C170.758 90.6449 170.912 91.1453 170.993 91.6938H168.326C167.96 90.6525 167.186 90.1318 166.001 90.1318C165.207 90.1318 164.568 90.4022 164.088 90.9456C163.605 91.489 163.365 92.2019 163.365 93.0839C163.365 93.607 163.471 94.0924 163.683 94.5348C163.896 94.9795 164.204 95.3385 164.613 95.614C165.02 95.887 165.483 96.0259 166.001 96.031C166.592 96.031 167.1 95.887 167.523 95.5962C167.945 95.3057 168.228 94.8836 168.369 94.3326H171.036C170.962 94.9139 170.811 95.4395 170.581 95.9122C170.351 96.3849 170.073 96.7792 169.747 97.0975C169.421 97.4135 169.052 97.6791 168.637 97.8938C168.223 98.1085 167.795 98.2627 167.356 98.3589C166.916 98.455 166.466 98.5029 166.001 98.5029C165.981 98.5029 165.963 98.5029 165.948 98.5029C165.417 98.5029 164.896 98.4347 164.394 98.2957C163.87 98.1515 163.377 97.9317 162.917 97.6361C162.455 97.3402 162.05 96.9812 161.702 96.5617C161.355 96.1422 161.077 95.6341 160.873 95.0378C160.668 94.4387 160.564 93.7891 160.559 93.089V93.089ZM172.459 93.1017C172.459 92.2169 172.613 91.4208 172.924 90.7054C173.235 89.9903 173.644 89.4141 174.155 88.9742C174.663 88.5369 175.244 88.1957 175.896 87.9581C176.548 87.7179 177.215 87.5991 177.896 87.5991C178.575 87.5991 179.243 87.7179 179.897 87.9581C180.552 88.1957 181.136 88.5369 181.646 88.9742C182.157 89.4141 182.569 89.9903 182.88 90.7054C183.191 91.4208 183.347 92.2169 183.347 93.1017C183.347 93.9888 183.191 94.7925 182.88 95.5077C182.569 96.2231 182.157 96.8019 181.646 97.2443C181.136 97.6839 180.552 98.0253 179.897 98.2652C179.243 98.5054 178.575 98.6242 177.896 98.6242C177.215 98.6242 176.548 98.5054 175.896 98.2652C175.244 98.0253 174.663 97.6839 174.155 97.2443C173.644 96.8019 173.235 96.2231 172.924 95.5077C172.613 94.7925 172.459 93.9888 172.459 93.1017ZM175.234 93.1017C175.234 93.5642 175.31 93.9838 175.464 94.3577C175.618 94.7317 175.82 95.0352 176.068 95.2678C176.318 95.5003 176.604 95.6771 176.922 95.801C177.243 95.9249 177.569 95.9855 177.903 95.9855C178.237 95.9855 178.563 95.9249 178.884 95.801C179.202 95.6771 179.488 95.5003 179.738 95.2678C179.986 95.0352 180.188 94.7317 180.342 94.3577C180.496 93.9838 180.572 93.5642 180.572 93.1017C180.572 92.6415 180.496 92.2271 180.342 91.8531C180.188 91.4814 179.986 91.1807 179.738 90.9507C179.488 90.7232 179.202 90.5462 178.884 90.4225C178.563 90.2986 178.237 90.2378 177.903 90.2378C177.569 90.2378 177.243 90.2986 176.922 90.4225C176.604 90.5462 176.318 90.7232 176.068 90.9507C175.82 91.1807 175.618 91.4814 175.464 91.8531C175.31 92.2271 175.234 92.6415 175.234 93.1017ZM185.372 98.3968V87.7507H186.37L190.533 92.3637L194.759 87.7507H195.73V98.3968H192.954V93.6652L190.695 96.0361H190.391L188.147 93.6652V98.3968H185.372V98.3968ZM198.411 98.3968V87.7507H199.41L203.573 92.3637L207.799 87.7507H208.769V98.3968H205.994V93.6652L203.734 96.0361H203.431L201.186 93.6652V98.3968H198.411V98.3968ZM211.36 94.8683V87.7813H213.953V94.833C213.953 95.2373 214.115 95.5532 214.441 95.7807C214.767 96.0084 215.146 96.1221 215.576 96.1221C216.005 96.1221 216.38 96.0084 216.7 95.7807C217.021 95.5532 217.183 95.2373 217.183 94.833V87.7813H219.807V94.8683C219.807 95.4319 219.69 95.9476 219.455 96.4202C219.22 96.8904 218.907 97.2796 218.51 97.5854C218.113 97.8912 217.661 98.1289 217.155 98.2957C216.65 98.4649 216.124 98.5484 215.576 98.5484C215.027 98.5484 214.501 98.4649 213.999 98.2957C213.493 98.1289 213.046 97.8912 212.654 97.5854C212.26 97.2796 211.946 96.8904 211.711 96.4202C211.476 95.9476 211.36 95.4319 211.36 94.8683V94.8683ZM222.41 98.3968V87.7357H223.396L228.764 92.9855V87.7813H231.54V98.412H230.569L225.216 93.1775V98.3968H222.41V98.3968ZM233.357 98.3968V96.0157H234.706V90.147H233.478V87.7813H238.619V90.147H237.391V96.0157H238.74V98.3968H233.357ZM239.87 93.089C239.875 92.3889 239.979 91.7394 240.184 91.1402C240.388 90.5436 240.666 90.0358 241.013 89.6161C241.361 89.1965 241.768 88.8353 242.231 88.5369C242.696 88.2387 243.189 88.0189 243.709 87.8746C244.23 87.7306 244.763 87.6599 245.312 87.6599C245.762 87.6599 246.204 87.708 246.636 87.8039C247.071 87.9001 247.493 88.0542 247.903 88.2664C248.312 88.4789 248.679 88.7391 249.002 89.0475C249.326 89.3558 249.604 89.7374 249.836 90.1926C250.069 90.6449 250.223 91.1453 250.304 91.6938H247.637C247.271 90.6525 246.497 90.1318 245.312 90.1318C244.518 90.1318 243.879 90.4022 243.399 90.9456C242.916 91.489 242.676 92.2019 242.676 93.0839C242.676 93.607 242.782 94.0924 242.994 94.5348C243.207 94.9795 243.515 95.3385 243.924 95.614C244.331 95.887 244.794 96.0259 245.312 96.031C245.903 96.031 246.411 95.887 246.833 95.5962C247.255 95.3057 247.539 94.8836 247.68 94.3326H250.347C250.273 94.9139 250.122 95.4395 249.892 95.9122C249.662 96.3849 249.384 96.7792 249.058 97.0975C248.732 97.4135 248.363 97.6791 247.948 97.8938C247.534 98.1085 247.106 98.2627 246.667 98.3589C246.227 98.455 245.777 98.5029 245.312 98.5029C245.292 98.5029 245.274 98.5029 245.259 98.5029C244.728 98.5029 244.207 98.4347 243.704 98.2957C243.181 98.1515 242.688 97.9317 242.228 97.6361C241.766 97.3402 241.361 96.9812 241.013 96.5617C240.666 96.1422 240.388 95.6341 240.184 95.0378C239.979 94.4387 239.875 93.7891 239.87 93.089V93.089ZM251.087 98.3968V98.0075L255.864 87.6446H257.032L261.824 98.0075V98.3968H259.173L258.551 97.0774H254.36L253.739 98.3968H251.087ZM255.255 94.7269H257.654L256.441 91.9414L255.255 94.7269ZM261.579 90.2076V87.7813H269.465V90.2076H266.872V98.3968H264.187V90.2076H261.579V90.2076ZM270.491 98.3968V96.0157H271.841V90.147H270.613V87.7813H275.753V90.147H274.525V96.0157H275.875V98.3968H270.491ZM276.989 93.1017C276.989 92.2169 277.144 91.4208 277.454 90.7054C277.765 89.9903 278.175 89.4141 278.685 88.9742C279.193 88.5369 279.775 88.1957 280.427 87.9581C281.079 87.7179 281.746 87.5991 282.426 87.5991C283.106 87.5991 283.773 87.7179 284.428 87.9581C285.082 88.1957 285.666 88.5369 286.177 88.9742C286.687 89.4141 287.099 89.9903 287.41 90.7054C287.721 91.4208 287.878 92.2169 287.878 93.1017C287.878 93.9888 287.721 94.7925 287.41 95.5077C287.099 96.2231 286.687 96.8019 286.177 97.2443C285.666 97.6839 285.082 98.0253 284.428 98.2652C283.773 98.5054 283.106 98.6242 282.426 98.6242C281.746 98.6242 281.079 98.5054 280.427 98.2652C279.775 98.0253 279.193 97.6839 278.685 97.2443C278.175 96.8019 277.765 96.2231 277.454 95.5077C277.144 94.7925 276.989 93.9888 276.989 93.1017ZM279.764 93.1017C279.764 93.5642 279.84 93.9838 279.995 94.3577C280.149 94.7317 280.351 95.0352 280.599 95.2678C280.849 95.5003 281.134 95.6771 281.453 95.801C281.774 95.9249 282.1 95.9855 282.434 95.9855C282.767 95.9855 283.093 95.9249 283.414 95.801C283.733 95.6771 284.018 95.5003 284.268 95.2678C284.516 95.0352 284.719 94.7317 284.873 94.3577C285.027 93.9838 285.103 93.5642 285.103 93.1017C285.103 92.6415 285.027 92.2271 284.873 91.8531C284.719 91.4814 284.516 91.1807 284.268 90.9507C284.018 90.7232 283.733 90.5462 283.414 90.4225C283.093 90.2986 282.767 90.2378 282.434 90.2378C282.1 90.2378 281.774 90.2986 281.453 90.4225C281.134 90.5462 280.849 90.7232 280.599 90.9507C280.351 91.1807 280.149 91.4814 279.995 91.8531C279.84 92.2271 279.764 92.6415 279.764 93.1017ZM289.917 98.3968V87.7357H290.903L296.272 92.9855V87.7813H299.047V98.412H298.076L292.723 93.1775V98.3968H289.917V98.3968ZM125.414 111.184C125.414 110.299 125.568 109.503 125.879 108.787C126.19 108.072 126.599 107.496 127.11 107.056C127.618 106.619 128.199 106.278 128.851 106.04C129.504 105.8 130.171 105.681 130.851 105.681C131.53 105.681 132.198 105.8 132.852 106.04C133.507 106.278 134.091 106.619 134.601 107.056C135.112 107.496 135.524 108.072 135.835 108.787C136.146 109.503 136.302 110.299 136.302 111.184C136.302 112.071 136.146 112.874 135.835 113.59C135.524 114.305 135.112 114.884 134.601 115.326C134.091 115.766 133.507 116.107 132.852 116.347C132.198 116.587 131.53 116.706 130.851 116.706C130.171 116.706 129.504 116.587 128.851 116.347C128.199 116.107 127.618 115.766 127.11 115.326C126.599 114.884 126.19 114.305 125.879 113.59C125.568 112.874 125.414 112.071 125.414 111.184ZM128.189 111.184C128.189 111.646 128.265 112.066 128.419 112.44C128.573 112.814 128.775 113.117 129.023 113.35C129.274 113.582 129.559 113.759 129.877 113.883C130.199 114.007 130.524 114.067 130.858 114.067C131.192 114.067 131.518 114.007 131.839 113.883C132.157 113.759 132.443 113.582 132.693 113.35C132.941 113.117 133.143 112.814 133.297 112.44C133.451 112.066 133.527 111.646 133.527 111.184C133.527 110.723 133.451 110.309 133.297 109.935C133.143 109.563 132.941 109.263 132.693 109.033C132.443 108.805 132.157 108.628 131.839 108.504C131.518 108.381 131.192 108.32 130.858 108.32C130.524 108.32 130.199 108.381 129.877 108.504C129.559 108.628 129.274 108.805 129.023 109.033C128.775 109.263 128.573 109.563 128.419 109.935C128.265 110.309 128.189 110.723 128.189 111.184ZM138.342 116.479V105.863H142.993C143.539 105.863 144.039 105.954 144.492 106.136C144.946 106.318 145.323 106.563 145.616 106.867C145.912 107.17 146.162 107.519 146.364 107.913C146.569 108.307 146.693 108.724 146.736 109.162C146.761 109.379 146.774 109.596 146.774 109.814C146.774 110.031 146.761 110.248 146.736 110.463C146.693 110.903 146.569 111.317 146.364 111.712C146.162 112.106 145.912 112.452 145.619 112.756C145.325 113.059 144.952 113.299 144.497 113.478C144.042 113.658 143.544 113.749 143 113.749H141.057V116.479H138.342V116.479ZM141.057 111.323H142.995C143.197 111.323 143.382 111.267 143.546 111.156C143.713 111.044 143.839 110.9 143.925 110.723C144.011 110.547 144.074 110.352 144.112 110.14C144.138 110.021 144.15 109.904 144.15 109.791C144.15 109.692 144.143 109.591 144.128 109.487C144.09 109.27 144.027 109.073 143.943 108.896C143.86 108.719 143.736 108.573 143.569 108.459C143.405 108.345 143.213 108.289 142.995 108.289C142.808 108.284 142.606 108.282 142.386 108.282C142.166 108.282 141.924 108.284 141.661 108.287C141.395 108.289 141.196 108.289 141.057 108.289V111.323V111.323ZM148.864 116.479V105.863H155.491V108.289H151.579V109.776H155.173V112.202H151.579V114.052H155.628V116.479H148.864V116.479ZM157.943 116.479V105.863H162.604C163.107 105.863 163.574 105.936 164.004 106.086C164.434 106.232 164.798 106.432 165.093 106.682C165.392 106.93 165.644 107.223 165.857 107.559C166.064 107.898 166.213 108.252 166.302 108.616C166.38 108.936 166.42 109.268 166.42 109.609C166.42 109.657 166.42 109.708 166.42 109.755C166.41 110.15 166.345 110.524 166.223 110.88C166.102 111.237 165.923 111.575 165.687 111.896C165.452 112.215 165.172 112.485 164.843 112.708L166.926 116.084V116.479H163.885L162.063 113.34H160.658V116.479H157.943V116.479ZM160.658 110.913H162.596C162.798 110.913 162.98 110.865 163.14 110.769C163.301 110.673 163.423 110.547 163.506 110.395C163.595 110.246 163.66 110.079 163.698 109.889C163.724 109.791 163.736 109.692 163.736 109.594C163.741 109.505 163.734 109.417 163.713 109.328C163.676 109.139 163.612 108.97 163.529 108.815C163.446 108.663 163.322 108.537 163.16 108.439C162.996 108.34 162.809 108.289 162.596 108.289C162.409 108.284 162.207 108.282 161.99 108.282C161.772 108.282 161.532 108.284 161.269 108.287C161.004 108.289 160.802 108.289 160.658 108.289V110.913V110.913ZM167.687 116.479V116.089L172.464 105.727H173.631L178.424 116.089V116.479H175.772L175.15 115.159H170.96L170.338 116.479H167.687ZM171.855 112.809H174.253L173.04 110.023L171.855 112.809ZM178.178 108.289V105.863H186.064V108.289H183.471V116.479H180.787V108.289H178.178V108.289ZM187.088 111.184C187.088 110.299 187.242 109.503 187.553 108.787C187.864 108.072 188.273 107.496 188.784 107.056C189.292 106.619 189.873 106.278 190.525 106.04C191.177 105.8 191.845 105.681 192.525 105.681C193.204 105.681 193.872 105.8 194.526 106.04C195.181 106.278 195.765 106.619 196.275 107.056C196.786 107.496 197.198 108.072 197.509 108.787C197.82 109.503 197.976 110.299 197.976 111.184C197.976 112.071 197.82 112.874 197.509 113.59C197.198 114.305 196.786 114.884 196.275 115.326C195.765 115.766 195.181 116.107 194.526 116.347C193.872 116.587 193.204 116.706 192.525 116.706C191.845 116.706 191.177 116.587 190.525 116.347C189.873 116.107 189.292 115.766 188.784 115.326C188.273 114.884 187.864 114.305 187.553 113.59C187.242 112.874 187.088 112.071 187.088 111.184ZM189.863 111.184C189.863 111.646 189.939 112.066 190.093 112.44C190.247 112.814 190.449 113.117 190.697 113.35C190.948 113.582 191.233 113.759 191.551 113.883C191.873 114.007 192.198 114.067 192.532 114.067C192.866 114.067 193.192 114.007 193.513 113.883C193.831 113.759 194.117 113.582 194.367 113.35C194.615 113.117 194.817 112.814 194.971 112.44C195.125 112.066 195.201 111.646 195.201 111.184C195.201 110.723 195.125 110.309 194.971 109.935C194.817 109.563 194.615 109.263 194.367 109.033C194.117 108.805 193.831 108.628 193.513 108.504C193.192 108.381 192.866 108.32 192.532 108.32C192.198 108.32 191.873 108.381 191.551 108.504C191.233 108.628 190.948 108.805 190.697 109.033C190.449 109.263 190.247 109.563 190.093 109.935C189.939 110.309 189.863 110.723 189.863 111.184ZM200.001 116.479V105.863H204.661C205.164 105.863 205.632 105.936 206.062 106.086C206.491 106.232 206.856 106.432 207.151 106.682C207.45 106.93 207.702 107.223 207.915 107.559C208.122 107.898 208.271 108.252 208.359 108.616C208.438 108.936 208.478 109.268 208.478 109.609C208.478 109.657 208.478 109.708 208.478 109.755C208.468 110.15 208.402 110.524 208.281 110.88C208.16 111.237 207.98 111.575 207.745 111.896C207.51 112.215 207.229 112.485 206.901 112.708L208.984 116.084V116.479H205.943L204.121 113.34H202.715V116.479H200.001V116.479ZM202.715 110.913H204.654C204.856 110.913 205.038 110.865 205.197 110.769C205.359 110.673 205.48 110.547 205.564 110.395C205.652 110.246 205.718 110.079 205.756 109.889C205.781 109.791 205.794 109.692 205.794 109.594C205.799 109.505 205.791 109.417 205.771 109.328C205.733 109.139 205.67 108.97 205.587 108.815C205.503 108.663 205.379 108.537 205.218 108.439C205.053 108.34 204.866 108.289 204.654 108.289C204.467 108.284 204.265 108.282 204.047 108.282C203.83 108.282 203.59 108.284 203.327 108.287C203.062 108.289 202.859 108.289 202.715 108.289V110.913V110.913Z" fill="#B737EC"/>
<defs>
<radialGradient id="paint0_radial_609_92" cx="0" cy="0" r="1" gradientUnits="userSpaceOnUse" gradientTransform="translate(117.028 146.043) rotate(-140.44) scale(151.795 201.558)">
<stop stop-color="#5D5CE2"/>
<stop offset="0.473958" stop-color="#A334F7"/>
<stop offset="0.817708" stop-color="#E33DD5"/>
<stop offset="1" stop-color="#FF70AE"/>
</radialGradient>
</defs>
</svg>
