<svg width="52" height="85" viewBox="0 0 52 85" fill="none" xmlns="http://www.w3.org/2000/svg">
<path fill-rule="evenodd" clip-rule="evenodd" d="M27.3172 54.1378V33.2773C27.9487 33.3299 28.1905 33.5478 28.6404 33.7753L42.5464 40.0675C43.4315 40.4624 47.1123 41.9984 47.5154 42.5487C46.9518 42.68 46.6668 42.9365 46.2002 43.2202C45.7754 43.4785 45.4249 43.6558 44.9363 43.943L37.4258 48.3527C35.7908 49.3373 34.1227 50.3129 32.3983 51.2721C31.365 51.8469 27.9929 53.9804 27.3172 54.1378ZM45.3631 53.6411C45.2081 54.2219 29.7406 75.9883 27.5414 78.8648C27.3148 79.1612 27.454 78.9798 27.3172 79.1372V64.2369C28.1061 64.0531 41.2993 55.9695 43.0141 54.9344C43.5915 54.5858 44.7672 53.7799 45.3631 53.6411V53.6411ZM26.0648 84.7663H25.7083C25.4006 84.7022 25.0868 84.4677 24.7557 84.0165L22.3516 80.6261C18.2179 74.7659 13.3648 68.2576 9.40401 62.4485C8.33611 60.8822 7.2264 59.4792 6.1584 57.9128L3.6734 54.4378C2.9588 53.3825 0 49.7255 0 48.6744C0 48.5821 0.378101 47.9104 0.471201 47.8211C1.5013 46.8338 3.5022 48.4796 4.7489 49.2233L22.941 60.1696C26.7146 62.439 25.2743 62.4251 29.1475 60.1071C30.167 59.4971 31.1137 58.9333 32.1496 58.308C33.6375 57.4098 49.6301 47.5154 50.4954 47.5154C51.2963 47.5154 51.8199 48.0391 51.8199 48.8399C51.8199 49.5864 50.7561 50.779 50.3627 51.3561C45.9086 57.8887 40.3942 65.0493 35.959 71.5542C34.9167 73.0831 33.8314 74.5123 32.7812 75.9921C31.6928 77.526 30.6973 78.9914 29.5648 80.5571C28.1285 82.543 27.1084 84.5546 26.0648 84.7663V84.7663ZM6.4567 53.4755L20.0326 61.5879C20.9283 62.0716 24.0083 64.0832 24.6683 64.2369V79.1372L6.4567 53.4755V53.4755ZM45.5287 53.4755L45.3631 53.6411L45.5287 53.4755ZM24.6683 33.2773V54.1378C24.0039 53.983 18.0229 50.3624 17.0854 49.8004L12.0529 46.8861C11.1751 46.3598 5.1873 42.7158 4.4701 42.5487C5.0066 41.8164 12.7196 38.6787 14.458 37.8019C14.9464 37.5555 15.2679 37.4529 15.7259 37.2486L23.2351 33.8309C23.7871 33.5609 23.998 33.3331 24.6683 33.2773V33.2773ZM27.3172 6.2913L27.929 7.16951C28.1744 7.58741 28.2914 7.78 28.5478 8.2063L32.2747 14.4128C33.9195 17.1611 35.5049 19.8039 37.1791 22.5877C38.8561 25.3764 40.4142 27.998 42.0832 30.7627L47.0187 39.0719C46.5045 38.9521 46.2814 38.7844 45.8613 38.5737L28.5718 30.6983C28.0159 30.4687 27.7747 30.3738 27.3172 30.1317V6.2913V6.2913ZM4.9667 39.0719L9.83961 30.8657C11.5138 28.0818 13.0992 25.4391 14.7439 22.6908L24.6683 6.2913V30.1317L4.9667 39.0719ZM0 42.2175C0 43.2797 1.3911 43.8482 2.7577 44.5921C3.3788 44.9303 3.8129 45.2193 4.4177 45.5811C5.0232 45.9433 5.5082 46.1967 6.0955 46.5522L19.257 54.2511C20.1649 54.7966 25.3748 57.9456 25.9927 57.9456C26.7467 57.9456 31.7173 54.8152 32.7294 54.2521C33.8773 53.6137 34.8564 53.043 35.9785 52.3689C37.1471 51.6667 38.1466 51.1231 39.3331 50.4256C42.0333 48.8383 48.1757 45.1029 50.8297 43.7107C53.2778 42.4265 51.2228 40.6113 48.9531 36.8064C47.8478 34.9535 46.8321 33.2582 45.7255 31.425L32.8329 10.0468C32.2602 9.0867 31.7999 8.3223 31.2189 7.3563C30.6411 6.3955 30.1431 5.63281 29.5816 4.6891L27.1641 0.649805C26.8211 0.175305 26.4565 0 25.6616 0C24.9159 0 22.6273 4.19741 22.1754 4.95731L12.6146 20.8926C10.4157 24.3771 8.39711 27.8846 6.26 31.425C5.7332 32.2977 0 41.4386 0 42.2175V42.2175Z" fill="url(#paint0_radial_506_379)"/>
<defs>
<radialGradient id="paint0_radial_506_379" cx="0" cy="0" r="1" gradientUnits="userSpaceOnUse" gradientTransform="translate(44 88) rotate(-109.006) scale(95.1893 109.594)">
<stop stop-color="#5D5CE2"/>
<stop offset="0.473958" stop-color="#A334F7"/>
<stop offset="0.817708" stop-color="#E33DD5"/>
<stop offset="1" stop-color="#FF70AE"/>
</radialGradient>
</defs>
</svg>
