<svg width="300" height="200" viewBox="0 0 300 200" fill="none" xmlns="http://www.w3.org/2000/svg">
<path fill-rule="evenodd" clip-rule="evenodd" d="M150.488 17.5C151.015 17.5 151.503 17.7762 151.774 18.2277L199.262 97.3016C199.469 97.6465 199.529 98.0602 199.428 98.4496C199.328 98.8391 199.075 99.1718 198.726 99.3729L151.238 126.79C150.774 127.058 150.202 127.058 149.738 126.79L102.25 99.3729C101.902 99.1718 101.649 98.8391 101.548 98.4496C101.447 98.0602 101.507 97.6465 101.714 97.3016L149.202 18.2277C149.473 17.7762 149.961 17.5 150.488 17.5ZM148.988 24.4112L106.776 94.6992L148.988 75.4118V24.4112ZM148.988 78.7101L106.269 98.2293L148.988 122.893V78.7101ZM151.988 122.893V78.7101L194.707 98.2293L151.988 122.893ZM194.2 94.6992L151.988 75.4118V24.4112L194.2 94.6992ZM101.894 112.5C102.369 111.981 103.141 111.862 103.75 112.214L150.488 139.198L197.226 112.214C197.835 111.862 198.607 111.981 199.082 112.5C199.558 113.019 199.608 113.798 199.204 114.374L151.717 182.109C151.436 182.51 150.977 182.748 150.488 182.748C149.999 182.748 149.541 182.51 149.26 182.109L101.772 114.374C101.368 113.798 101.419 113.019 101.894 112.5ZM148.988 141.796L108.118 118.2L148.988 176.496V141.796ZM151.988 176.496V141.796L192.858 118.2L151.988 176.496Z" fill="#A036F6"/>
</svg>
