<svg width="300" height="200" viewBox="0 0 300 200" fill="none" xmlns="http://www.w3.org/2000/svg">
<path fill-rule="evenodd" clip-rule="evenodd" d="M147.655 19.5C140.59 19.5 134.863 25.2271 134.863 32.2919C134.863 39.3567 140.59 45.0839 147.655 45.0839C147.748 45.0839 147.841 45.0829 147.934 45.0809C148.126 44.992 148.339 44.9423 148.564 44.9423C148.722 44.9423 148.875 44.9668 149.018 45.0121C155.442 44.3318 160.447 38.8964 160.447 32.2919C160.447 25.2271 154.72 19.5 147.655 19.5ZM150.064 47.9012C157.642 46.7412 163.447 40.1944 163.447 32.2919C163.447 23.5703 156.377 16.5 147.655 16.5C138.933 16.5 131.863 23.5703 131.863 32.2919C131.863 40.8158 138.616 47.7624 147.064 48.073L147.065 94.7716C140.359 95.1653 134.357 98.1821 130.071 102.811L111.962 85.0353C112.892 83.5527 113.43 81.7987 113.43 79.9191C113.43 74.5968 109.116 70.2822 103.793 70.2822C98.4712 70.2822 94.1566 74.5968 94.1566 79.9191C94.1566 85.2414 98.4712 89.556 103.793 89.556C106.152 89.556 108.313 88.7086 109.988 87.3017L128.16 105.138C125.145 109.292 123.367 114.401 123.367 119.925C123.367 121.272 123.473 122.594 123.676 123.884L100.128 131.047C97.674 125.708 92.2795 122.002 86.0193 122.002C77.4482 122.002 70.5 128.95 70.5 137.521C70.5 146.092 77.4482 153.04 86.0193 153.04C94.5904 153.04 101.539 146.092 101.539 137.521C101.539 136.268 101.39 135.05 101.11 133.884L124.323 126.823C126.643 134.991 132.978 141.469 141.06 143.987L136.323 156.016C135.723 155.89 135.101 155.824 134.463 155.824C129.487 155.824 125.452 159.858 125.452 164.835C125.452 169.812 129.487 173.846 134.463 173.846C139.44 173.846 143.474 169.812 143.474 164.835C143.474 161.56 141.727 158.693 139.114 157.115L144 144.711C145.48 144.982 147.006 145.123 148.565 145.123C154.106 145.123 159.23 143.335 163.39 140.303L189.377 164.922C187.396 166.86 186.167 169.564 186.167 172.555C186.167 178.453 190.948 183.235 196.847 183.235C202.745 183.235 207.527 178.453 207.527 172.555C207.527 166.656 202.745 161.874 196.847 161.874C195.036 161.874 193.331 162.325 191.837 163.12L165.722 138.38C169.676 134.702 172.447 129.769 173.399 124.214L189.298 126.601C189.381 131.506 193.383 135.456 198.308 135.456C203.285 135.456 207.319 131.422 207.319 126.445C207.319 121.469 203.285 117.434 198.308 117.434C194.313 117.434 190.925 120.034 189.744 123.634L173.73 121.23C173.752 120.798 173.763 120.363 173.763 119.925C173.763 115.095 172.404 110.582 170.047 106.748L181.335 96.096C183.998 98.412 187.477 99.8142 191.283 99.8142C199.659 99.8142 206.449 93.0242 206.449 84.6484C206.449 76.2725 199.659 69.4826 191.283 69.4826C182.907 69.4826 176.117 76.2725 176.117 84.6484C176.117 88.1376 177.296 91.3516 179.276 93.9142L168.307 104.265C163.982 98.8199 157.451 95.2052 150.065 94.7716L150.064 47.9012ZM166.851 107.338C162.847 101.533 156.151 97.7277 148.565 97.7277C136.306 97.7277 126.367 107.666 126.367 119.925C126.367 132.185 136.306 142.123 148.565 142.123C153.844 142.123 158.692 140.281 162.502 137.204C162.531 137.178 162.561 137.154 162.592 137.131C166.977 133.551 169.968 128.329 170.626 122.403C170.629 122.365 170.633 122.326 170.639 122.286C170.721 121.511 170.763 120.723 170.763 119.925C170.763 115.275 169.333 110.959 166.888 107.392C166.876 107.374 166.863 107.356 166.851 107.338ZM182.466 93.0309C182.456 93.0193 182.445 93.0077 182.434 92.9963C182.424 92.9851 182.413 92.9741 182.402 92.9633C180.365 90.7881 179.117 87.8639 179.117 84.6484C179.117 77.9294 184.564 72.4826 191.283 72.4826C198.002 72.4826 203.449 77.9294 203.449 84.6484C203.449 91.3674 198.002 96.8142 191.283 96.8142C187.813 96.8142 184.682 95.3614 182.466 93.0309ZM108.863 84.2023C108.85 84.2173 108.837 84.2326 108.824 84.248C107.607 85.6612 105.805 86.556 103.793 86.556C100.128 86.556 97.1566 83.5846 97.1566 79.9191C97.1566 76.2537 100.128 73.2822 103.793 73.2822C107.459 73.2822 110.43 76.2537 110.43 79.9191C110.43 81.5516 109.841 83.0463 108.863 84.2023ZM198.308 120.434C194.988 120.434 192.297 123.126 192.297 126.445C192.297 129.765 194.988 132.456 198.308 132.456C201.628 132.456 204.319 129.765 204.319 126.445C204.319 123.126 201.628 120.434 198.308 120.434ZM86.0193 125.002C79.1051 125.002 73.5 130.607 73.5 137.521C73.5 144.435 79.1051 150.04 86.0193 150.04C92.9335 150.04 98.5386 144.435 98.5386 137.521C98.5386 130.607 92.9335 125.002 86.0193 125.002ZM134.463 158.824C131.143 158.824 128.452 161.515 128.452 164.835C128.452 168.155 131.143 170.846 134.463 170.846C137.783 170.846 140.474 168.155 140.474 164.835C140.474 161.515 137.783 158.824 134.463 158.824ZM196.847 164.874C192.605 164.874 189.167 168.313 189.167 172.555C189.167 176.796 192.605 180.235 196.847 180.235C201.088 180.235 204.527 176.796 204.527 172.555C204.527 168.313 201.088 164.874 196.847 164.874Z" fill="#A036F6"/>
</svg>
