<svg width="118" height="34" viewBox="0 0 118 34" fill="none" xmlns="http://www.w3.org/2000/svg">
<path fill-rule="evenodd" clip-rule="evenodd" d="M1.0646 5.1545C1.0646 5.4466 0.827706 5.68351 0.535606 5.68351C0.243506 5.68351 0.00660157 5.4466 0.00660157 5.1545V2.8771C0.00660157 2.0859 0.354902 1.36051 0.916602 0.835206C1.4658 0.321505 2.2193 0 3.0463 0H23.6734C23.9655 0 24.2024 0.236904 24.2024 0.529004C24.2024 0.821104 23.9655 1.058 23.6734 1.058H3.0463C2.4934 1.058 1.9948 1.2683 1.6358 1.604C1.2832 1.9337 1.0646 2.3862 1.0646 2.8771V5.1545V5.1545ZM15.1961 5.4162H28.4927V10.2563H22.5223V24.6441H17.6822V10.2563C17.6814 8.2699 16.699 6.5029 15.1961 5.4162ZM28.4927 19.804H29.8951V5.4162C32.557 5.4162 34.735 7.59661 34.735 10.2562V19.8041C34.735 22.4649 32.557 24.6441 29.8951 24.6441H28.4927C25.8319 24.6441 23.6526 22.466 23.6526 19.8041V11.6412H28.4927V19.804V19.804ZM10.4556 19.804H11.7116V10.2563H10.4556V19.804ZM11.7116 24.6441H5.61561V5.4162H11.7116C14.3735 5.4162 16.5515 7.59661 16.5515 10.2562V19.8041C16.5515 22.4649 14.3735 24.6441 11.7116 24.6441V24.6441ZM17.6822 6.47451H17.6239C17.7469 6.66581 17.8609 6.8634 17.9653 7.0667C18.3044 7.7271 18.5425 8.4445 18.6587 9.198H18.7405V23.5858H21.464V9.198H27.4344V6.47451H17.6822V6.47451ZM29.8951 20.8623H27.4344V12.6995H24.7109V19.8041C24.7109 20.8426 25.137 21.7879 25.8228 22.4737C26.5089 23.1598 27.4542 23.5858 28.4925 23.5858H29.8951C30.9336 23.5858 31.8789 23.1597 32.5647 22.4739C33.2508 21.7878 33.6767 20.8424 33.6767 19.8041V10.2562C33.6767 9.21831 33.2507 8.27291 32.5644 7.58661C32.1208 7.14301 31.5689 6.80811 30.9534 6.62681V20.8623H29.8951V20.8623ZM11.7116 20.8623H9.39731V9.198H12.7699V20.8623H11.7116ZM10.4556 23.5858H11.7116C12.7501 23.5858 13.6954 23.1597 14.3812 22.4739C15.0673 21.7878 15.4932 20.8424 15.4932 19.8041V10.2562C15.4932 9.21831 15.0672 8.27291 14.3809 7.58661C13.695 6.90071 12.75 6.47451 11.7116 6.47451H6.67391V23.5858H10.4556V23.5858ZM29.4943 1.058C29.2022 1.058 28.9653 0.821104 28.9653 0.529004C28.9653 0.236904 29.2022 0 29.4943 0H41.853C42.682 0 43.4382 0.315406 43.9882 0.823106C44.5503 1.34191 44.8993 2.0604 44.8993 2.8526V24.6879C44.8993 25.2359 44.7615 25.6596 44.4599 26.1087C44.1927 26.5064 43.8063 26.9011 43.2642 27.4387C42.7985 27.9006 42.258 28.4521 41.6894 29.0323C40.5796 30.1645 39.3624 31.4065 38.362 32.3299C37.9012 32.7552 37.2776 33.1054 36.6498 33.3572C35.9223 33.6488 35.1722 33.8141 34.6536 33.8141H29.4943C29.2022 33.8141 28.9653 33.5772 28.9653 33.2851C28.9653 32.993 29.2022 32.7561 29.4943 32.7561H34.6536C35.0531 32.7561 35.6549 32.6193 36.2572 32.3778C36.777 32.1693 37.2852 31.8868 37.647 31.5529C38.6397 30.6366 39.8414 29.4104 40.9372 28.2925C41.507 27.711 42.0487 27.1584 42.5202 26.6907C43.0194 26.1956 43.3723 25.8366 43.5837 25.5219C43.7605 25.2586 43.8413 25.0099 43.8413 24.6879V2.8526C43.8413 2.3673 43.6237 1.9236 43.2732 1.6001C42.911 1.2658 42.4083 1.058 41.853 1.058H29.4943V1.058ZM23.6734 32.7561C23.9655 32.7561 24.2024 32.993 24.2024 33.2851C24.2024 33.5772 23.9655 33.8141 23.6734 33.8141H3.03601V33.812C2.20931 33.8089 1.45571 33.4948 0.908907 32.9906C0.348506 32.4739 0 31.7588 0 30.9696V30.9615H0.00209961L0.00870118 29.1948C0.00870118 28.9039 0.244706 28.6679 0.535606 28.6679C0.826506 28.6679 1.0625 28.9039 1.0625 29.1948L1.0559 30.9615H1.05801V30.9696C1.05801 31.4514 1.27511 31.8919 1.62391 32.2136C1.98631 32.5478 2.48671 32.7562 3.03601 32.7582V32.7561H23.6734Z" fill="url(#paint0_radial_506_3)"/>
<path d="M49.5524 9.16429V4.99169H51.1251C51.3884 4.99369 51.6318 5.03339 51.8553 5.11089C52.0788 5.18839 52.2696 5.29468 52.4276 5.42778C52.5855 5.56188 52.7206 5.71789 52.8329 5.89469C52.9452 6.07259 53.0276 6.26129 53.0803 6.46099C53.1329 6.66069 53.1588 6.86639 53.1588 7.07799C53.1588 7.28959 53.1329 7.49518 53.0803 7.69488C53.0286 7.89458 52.9462 8.08338 52.8339 8.26118C52.7216 8.43808 52.5865 8.59399 52.4286 8.72819C52.2716 8.86129 52.0808 8.96759 51.8573 9.04509C51.6338 9.12259 51.3904 9.16229 51.1271 9.16429H49.5524V9.16429ZM50.6194 8.19269H51.1271C51.288 8.19269 51.4341 8.16089 51.5632 8.09629C51.6924 8.03269 51.7977 7.94829 51.8782 7.84299C51.9586 7.73869 52.0202 7.61939 52.063 7.48729C52.1057 7.35419 52.1275 7.21809 52.1275 7.07799C52.1275 6.93789 52.1057 6.80178 52.063 6.66868C52.0202 6.53648 51.9586 6.41729 51.8782 6.31299C51.7977 6.20769 51.6924 6.12319 51.5632 6.05969C51.4341 5.99509 51.288 5.96328 51.1271 5.96328H50.6194V8.19269V8.19269ZM53.9734 9.16429V4.99169H56.5783V5.94538H55.0404V6.52958H56.4532V7.48328H55.0404V8.21059H56.632V9.16429H53.9734V9.16429ZM57.2977 7.07799C57.2996 6.80279 57.3404 6.54748 57.4209 6.31198C57.5013 6.07748 57.6106 5.87788 57.7467 5.71288C57.8838 5.54798 58.0438 5.40598 58.2256 5.28868C58.4084 5.17148 58.6021 5.08509 58.8068 5.02839C59.0114 4.97179 59.221 4.94398 59.4366 4.94398C59.6135 4.94398 59.7873 4.96289 59.9572 5.00059C60.1281 5.03839 60.294 5.09898 60.455 5.18238C60.6159 5.26588 60.76 5.36819 60.8871 5.48939C61.0143 5.61059 61.1236 5.76058 61.215 5.93948C61.3064 6.11728 61.367 6.31398 61.3988 6.52958H60.3506C60.2066 6.12028 59.9026 5.91559 59.4366 5.91559C59.1247 5.91559 58.8733 6.02189 58.6846 6.23549C58.4948 6.44909 58.4004 6.72929 58.4004 7.07599C58.4004 7.28159 58.4422 7.47239 58.5256 7.64629C58.6091 7.82109 58.7303 7.96219 58.8912 8.07049C59.0512 8.17779 59.233 8.23239 59.4366 8.23439C59.6691 8.23439 59.8688 8.17779 60.0347 8.06349C60.2006 7.94929 60.3119 7.78339 60.3675 7.56679H61.4157C61.3868 7.79529 61.3272 8.00189 61.2368 8.18769C61.1464 8.37349 61.0371 8.52849 60.909 8.65359C60.7808 8.77779 60.6358 8.88218 60.4728 8.96658C60.3099 9.05098 60.142 9.11159 59.9691 9.14939C59.7963 9.18719 59.6194 9.20599 59.4366 9.20599C59.4287 9.20599 59.4217 9.20599 59.4158 9.20599C59.2071 9.20599 59.0025 9.17918 58.8048 9.12458C58.5991 9.06788 58.4054 8.98149 58.2246 8.86529C58.0428 8.74899 57.8838 8.60789 57.7467 8.44299C57.6106 8.27809 57.5013 8.07839 57.4209 7.84399C57.3404 7.60849 57.2996 7.35319 57.2977 7.07799V7.07799ZM62.2313 9.16429V4.99169H64.8362V5.94538H63.2983V6.52958H64.7111V7.48328H63.2983V8.21059H64.8899V9.16429H62.2313V9.16429ZM65.8059 9.16429V4.97379H66.1934L68.3035 7.03729V4.99169H69.3944V9.17029H69.0129L66.9087 7.11278V9.16429H65.8059V9.16429ZM70.0431 5.94538V4.99169H73.1428V5.94538H72.1235V9.16429H71.0684V5.94538H70.0431V5.94538ZM73.7955 9.16429V4.99169H75.6274C75.8251 4.99169 76.0089 5.02048 76.1778 5.07908C76.3467 5.13668 76.4898 5.21518 76.606 5.31358C76.7233 5.41088 76.8226 5.52618 76.9061 5.65828C76.9875 5.79138 77.0461 5.93048 77.0809 6.07358C77.1117 6.19968 77.1276 6.32989 77.1276 6.46399C77.1276 6.48289 77.1276 6.50278 77.1276 6.52158C77.1236 6.67658 77.0978 6.82368 77.0501 6.96368C77.0024 7.10378 76.9319 7.23689 76.8395 7.36309C76.7471 7.48829 76.6368 7.59458 76.5077 7.68198L77.3263 9.00929V9.16429H76.1311L75.4148 7.93038H74.8625V9.16429H73.7955V9.16429ZM74.8625 6.97658H75.6245C75.7039 6.97658 75.7755 6.95778 75.8381 6.91998C75.9016 6.88228 75.9493 6.83259 75.9821 6.77299C76.0169 6.71439 76.0427 6.64879 76.0576 6.57429C76.0676 6.53549 76.0725 6.49679 76.0725 6.45809C76.0745 6.42329 76.0715 6.38848 76.0636 6.35368C76.0487 6.27918 76.0238 6.21268 75.9911 6.15208C75.9583 6.09238 75.9096 6.04279 75.846 6.00399C75.7814 5.96529 75.7079 5.94538 75.6245 5.94538C75.5509 5.94338 75.4715 5.94238 75.386 5.94238C75.3006 5.94238 75.2062 5.94339 75.1029 5.94439C74.9986 5.94539 74.9191 5.94538 74.8625 5.94538V6.97658V6.97658ZM77.6254 9.16429V9.01129L79.503 4.93799H79.962L81.8457 9.01129V9.16429H80.8035L80.5591 8.64569H78.9119L78.6675 9.16429H77.6254ZM79.2636 7.72179H80.2064L79.7296 6.62689L79.2636 7.72179ZM82.3872 9.16429V4.99169H83.4542V8.21059H84.9742V9.16429H82.3872ZM85.3597 9.16429V8.22839H85.8902V5.92158H85.4074V4.99169H87.4281V5.92158H86.9453V8.22839H87.4758V9.16429H85.3597ZM87.7769 9.16429V9.00429L89.4816 5.94538H87.9308V4.99169H91.0921V5.15458L89.3803 8.21059H91.1089V9.16429H87.7769V9.16429ZM91.8113 9.16429V4.99169H94.4162V5.94538H92.8783V6.52958H94.2912V7.48328H92.8783V8.21059H94.4699V9.16429H91.8113V9.16429ZM95.3859 9.16429V4.99169H96.9587C97.222 4.99369 97.4653 5.03339 97.6888 5.11089C97.9123 5.18839 98.1032 5.29468 98.2612 5.42778C98.4191 5.56188 98.5541 5.71789 98.6664 5.89469C98.7787 6.07259 98.8611 6.26129 98.9138 6.46099C98.9664 6.66069 98.9923 6.86639 98.9923 7.07799C98.9923 7.28959 98.9664 7.49518 98.9138 7.69488C98.8621 7.89458 98.7797 8.08338 98.6674 8.26118C98.5551 8.43808 98.4201 8.59399 98.2622 8.72819C98.1051 8.86129 97.9143 8.96759 97.6908 9.04509C97.4673 9.12259 97.2239 9.16229 96.9606 9.16429H95.3859V9.16429ZM96.4529 8.19269H96.9606C97.1215 8.19269 97.2676 8.16089 97.3967 8.09629C97.5259 8.03269 97.6312 7.94829 97.7117 7.84299C97.7921 7.73869 97.8537 7.61939 97.8965 7.48729C97.9392 7.35419 97.9611 7.21809 97.9611 7.07799C97.9611 6.93789 97.9392 6.80178 97.8965 6.66868C97.8537 6.53648 97.7921 6.41729 97.7117 6.31299C97.6312 6.20769 97.5259 6.12319 97.3967 6.05969C97.2676 5.99509 97.1215 5.96328 96.9606 5.96328H96.4529V8.19269V8.19269ZM49.1411 13.0528V12.0991H52.2408V13.0528H51.2215V16.2717H50.1664V13.0528H49.1411V13.0528ZM52.8994 16.2717V12.0991H55.5043V13.0528H53.9664V13.637H55.3792V14.5907H53.9664V15.318H55.558V16.2717H52.8994V16.2717ZM56.4681 16.2717V12.0991H57.5351V15.318H59.0551V16.2717H56.4681ZM59.7863 16.2717V12.0991H62.3912V13.0528H60.8533V13.637H62.2661V14.5907H60.8533V15.318H62.4449V16.2717H59.7863V16.2717ZM63.1106 14.1854C63.1125 13.9102 63.1533 13.6549 63.2338 13.4194C63.3142 13.1849 63.4235 12.9853 63.5596 12.8203C63.6967 12.6554 63.8567 12.5134 64.0385 12.3961C64.2213 12.2789 64.415 12.1925 64.6197 12.1358C64.8243 12.0792 65.0339 12.0514 65.2495 12.0514C65.4264 12.0514 65.6002 12.0703 65.7701 12.108C65.941 12.1458 66.1069 12.2064 66.2679 12.2898C66.4288 12.3733 66.5729 12.4756 66.7 12.5968C66.8272 12.718 66.9365 12.868 67.0279 13.0469C67.1193 13.2247 67.1799 13.4214 67.2117 13.637H66.1635C66.0195 13.2277 65.7155 13.023 65.2495 13.023C64.9376 13.023 64.6862 13.1293 64.4975 13.3429C64.3077 13.5565 64.2133 13.8367 64.2133 14.1834C64.2133 14.389 64.2551 14.5798 64.3385 14.7537C64.422 14.9285 64.5432 15.0696 64.7041 15.1779C64.8641 15.2852 65.0459 15.3398 65.2495 15.3418C65.482 15.3418 65.6817 15.2852 65.8476 15.1709C66.0135 15.0567 66.1248 14.8908 66.1804 14.6742H67.2286C67.1997 14.9027 67.1401 15.1093 67.0497 15.2951C66.9593 15.4809 66.85 15.6359 66.7219 15.761C66.5937 15.8852 66.4487 15.9896 66.2857 16.074C66.1228 16.1584 65.9549 16.219 65.782 16.2568C65.6092 16.2946 65.4323 16.3134 65.2495 16.3134C65.2416 16.3134 65.2346 16.3134 65.2287 16.3134C65.02 16.3134 64.8154 16.2866 64.6177 16.232C64.412 16.1753 64.2183 16.0889 64.0375 15.9727C63.8557 15.8564 63.6967 15.7153 63.5596 15.5504C63.4235 15.3855 63.3142 15.1858 63.2338 14.9514C63.1533 14.7159 63.1125 14.4606 63.1106 14.1854V14.1854ZM67.7879 14.1904C67.7879 13.8426 67.8485 13.5297 67.9707 13.2485C68.0929 12.9674 68.2538 12.7409 68.4545 12.568C68.6542 12.3961 68.8827 12.262 69.139 12.1686C69.3954 12.0742 69.6576 12.0275 69.9249 12.0275C70.1921 12.0275 70.4544 12.0742 70.7117 12.1686C70.969 12.262 71.1985 12.3961 71.3992 12.568C71.5999 12.7409 71.7618 12.9674 71.884 13.2485C72.0062 13.5297 72.0678 13.8426 72.0678 14.1904C72.0678 14.5391 72.0062 14.855 71.884 15.1361C71.7618 15.4173 71.5999 15.6448 71.3992 15.8187C71.1985 15.9915 70.969 16.1257 70.7117 16.22C70.4544 16.3144 70.1921 16.3611 69.9249 16.3611C69.6576 16.3611 69.3954 16.3144 69.139 16.22C68.8827 16.1257 68.6542 15.9915 68.4545 15.8187C68.2538 15.6448 68.0929 15.4173 67.9707 15.1361C67.8485 14.855 67.7879 14.5391 67.7879 14.1904ZM68.8787 14.1904C68.8787 14.3722 68.9086 14.5371 68.9692 14.6841C69.0298 14.8311 69.1092 14.9504 69.2066 15.0418C69.305 15.1332 69.4172 15.2027 69.5424 15.2514C69.6686 15.3001 69.7967 15.3239 69.9279 15.3239C70.059 15.3239 70.1872 15.3001 70.3133 15.2514C70.4385 15.2027 70.5508 15.1332 70.6491 15.0418C70.7465 14.9504 70.826 14.8311 70.8866 14.6841C70.9472 14.5371 70.977 14.3722 70.977 14.1904C70.977 14.0095 70.9472 13.8466 70.8866 13.6996C70.826 13.5535 70.7465 13.4353 70.6491 13.3449C70.5508 13.2555 70.4385 13.1859 70.3133 13.1373C70.1872 13.0886 70.059 13.0647 69.9279 13.0647C69.7967 13.0647 69.6686 13.0886 69.5424 13.1373C69.4172 13.1859 69.305 13.2555 69.2066 13.3449C69.1092 13.4353 69.0298 13.5535 68.9692 13.6996C68.9086 13.8466 68.8787 14.0095 68.8787 14.1904ZM72.8636 16.2717V12.0871H73.256L74.8923 13.9003L76.5534 12.0871H76.9349V16.2717H75.844V14.4119L74.9558 15.3438H74.8366L73.9544 14.4119V16.2717H72.8636V16.2717ZM77.989 16.2717V12.0871H78.3814L80.0177 13.9003L81.6788 12.0871H82.0603V16.2717H80.9694V14.4119L80.0812 15.3438H79.962L79.0798 14.4119V16.2717H77.989V16.2717ZM83.0786 14.8848V12.0991H84.0979V14.8709C84.0979 15.0298 84.1615 15.154 84.2896 15.2434C84.4178 15.3329 84.5668 15.3776 84.7357 15.3776C84.9046 15.3776 85.0517 15.3329 85.1778 15.2434C85.304 15.154 85.3676 15.0298 85.3676 14.8709V12.0991H86.3988V14.8848C86.3988 15.1063 86.3531 15.309 86.2607 15.4948C86.1683 15.6796 86.0451 15.8326 85.8892 15.9528C85.7332 16.073 85.5553 16.1664 85.3567 16.232C85.158 16.2985 84.9513 16.3313 84.7357 16.3313C84.5201 16.3313 84.3135 16.2985 84.1158 16.232C83.9171 16.1664 83.7412 16.073 83.5873 15.9528C83.4323 15.8326 83.3091 15.6796 83.2167 15.4948C83.1243 15.309 83.0786 15.1063 83.0786 14.8848V14.8848ZM87.4221 16.2717V12.0812H87.8096L89.9197 14.1447V12.0991H91.0106V16.2777H90.6291L88.5249 14.2202V16.2717H87.4221V16.2717ZM91.7249 16.2717V15.3358H92.2554V13.029H91.7727V12.0991H93.7933V13.029H93.3105V15.3358H93.8411V16.2717H91.7249ZM94.2852 14.1854C94.2871 13.9102 94.3278 13.6549 94.4083 13.4194C94.4887 13.1849 94.598 12.9853 94.7341 12.8203C94.8712 12.6554 95.0312 12.5134 95.213 12.3961C95.3958 12.2789 95.5895 12.1925 95.7942 12.1358C95.9988 12.0792 96.2084 12.0514 96.424 12.0514C96.6009 12.0514 96.7747 12.0703 96.9446 12.108C97.1155 12.1458 97.2814 12.2064 97.4424 12.2898C97.6033 12.3733 97.7475 12.4756 97.8746 12.5968C98.0018 12.718 98.111 12.868 98.2024 13.0469C98.2938 13.2247 98.3545 13.4214 98.3863 13.637H97.338C97.194 13.2277 96.89 13.023 96.424 13.023C96.1121 13.023 95.8608 13.1293 95.6721 13.3429C95.4823 13.5565 95.3879 13.8367 95.3879 14.1834C95.3879 14.389 95.4296 14.5798 95.513 14.7537C95.5965 14.9285 95.7178 15.0696 95.8787 15.1779C96.0387 15.2852 96.2204 15.3398 96.424 15.3418C96.6565 15.3418 96.8562 15.2852 97.0221 15.1709C97.188 15.0567 97.2993 14.8908 97.3549 14.6742H98.4031C98.3742 14.9027 98.3146 15.1093 98.2242 15.2951C98.1338 15.4809 98.0245 15.6359 97.8964 15.761C97.7682 15.8852 97.6233 15.9896 97.4603 16.074C97.2974 16.1584 97.1294 16.219 96.9565 16.2568C96.7837 16.2946 96.6068 16.3134 96.424 16.3134C96.4161 16.3134 96.4091 16.3134 96.4032 16.3134C96.1945 16.3134 95.9899 16.2866 95.7922 16.232C95.5865 16.1753 95.3929 16.0889 95.2121 15.9727C95.0303 15.8564 94.8712 15.7153 94.7341 15.5504C94.598 15.3855 94.4887 15.1858 94.4083 14.9514C94.3278 14.7159 94.2871 14.4606 94.2852 14.1854V14.1854ZM98.6942 16.2717V16.1187L100.572 12.0454H101.031L102.915 16.1187V16.2717H101.872L101.628 15.7531H99.9807L99.7364 16.2717H98.6942ZM100.332 14.8292H101.275L100.798 13.7343L100.332 14.8292ZM102.818 13.0528V12.0991H105.918V13.0528H104.899V16.2717H103.843V13.0528H102.818V13.0528ZM106.321 16.2717V15.3358H106.852V13.029H106.369V12.0991H108.39V13.029H107.907V15.3358H108.437V16.2717H106.321ZM108.875 14.1904C108.875 13.8426 108.936 13.5297 109.058 13.2485C109.18 12.9674 109.341 12.7409 109.542 12.568C109.742 12.3961 109.97 12.262 110.227 12.1686C110.483 12.0742 110.745 12.0275 111.012 12.0275C111.28 12.0275 111.542 12.0742 111.799 12.1686C112.057 12.262 112.286 12.3961 112.487 12.568C112.687 12.7409 112.849 12.9674 112.972 13.2485C113.094 13.5297 113.155 13.8426 113.155 14.1904C113.155 14.5391 113.094 14.855 112.972 15.1361C112.849 15.4173 112.687 15.6448 112.487 15.8187C112.286 15.9915 112.057 16.1257 111.799 16.22C111.542 16.3144 111.28 16.3611 111.012 16.3611C110.745 16.3611 110.483 16.3144 110.227 16.22C109.97 16.1257 109.742 15.9915 109.542 15.8187C109.341 15.6448 109.18 15.4173 109.058 15.1361C108.936 14.855 108.875 14.5391 108.875 14.1904ZM109.966 14.1904C109.966 14.3722 109.996 14.5371 110.057 14.6841C110.117 14.8311 110.197 14.9504 110.294 15.0418C110.393 15.1332 110.505 15.2027 110.63 15.2514C110.756 15.3001 110.884 15.3239 111.015 15.3239C111.147 15.3239 111.275 15.3001 111.401 15.2514C111.526 15.2027 111.638 15.1332 111.737 15.0418C111.834 14.9504 111.914 14.8311 111.974 14.6841C112.035 14.5371 112.065 14.3722 112.065 14.1904C112.065 14.0095 112.035 13.8466 111.974 13.6996C111.914 13.5535 111.834 13.4353 111.737 13.3449C111.638 13.2555 111.526 13.1859 111.401 13.1373C111.275 13.0886 111.147 13.0647 111.015 13.0647C110.884 13.0647 110.756 13.0886 110.63 13.1373C110.505 13.1859 110.393 13.2555 110.294 13.3449C110.197 13.4353 110.117 13.5535 110.057 13.6996C109.996 13.8466 109.966 14.0095 109.966 14.1904ZM113.957 16.2717V12.0812H114.345L116.455 14.1447V12.0991H117.546V16.2777H117.164L115.06 14.2202V16.2717H113.957V16.2717ZM49.2961 21.2978C49.2961 20.95 49.3567 20.6371 49.4789 20.3559C49.6011 20.0748 49.762 19.8483 49.9627 19.6754C50.1624 19.5035 50.3909 19.3694 50.6472 19.276C50.9036 19.1816 51.1658 19.1349 51.4331 19.1349C51.7003 19.1349 51.9626 19.1816 52.2199 19.276C52.4772 19.3694 52.7067 19.5035 52.9074 19.6754C53.1081 19.8483 53.27 20.0748 53.3922 20.3559C53.5144 20.6371 53.576 20.95 53.576 21.2978C53.576 21.6465 53.5144 21.9624 53.3922 22.2435C53.27 22.5247 53.1081 22.7522 52.9074 22.9261C52.7067 23.0989 52.4772 23.2331 52.2199 23.3274C51.9626 23.4218 51.7003 23.4685 51.4331 23.4685C51.1658 23.4685 50.9036 23.4218 50.6472 23.3274C50.3909 23.2331 50.1624 23.0989 49.9627 22.9261C49.762 22.7522 49.6011 22.5247 49.4789 22.2435C49.3567 21.9624 49.2961 21.6465 49.2961 21.2978ZM50.3869 21.2978C50.3869 21.4796 50.4168 21.6445 50.4774 21.7915C50.538 21.9385 50.6174 22.0578 50.7148 22.1492C50.8132 22.2406 50.9254 22.3101 51.0506 22.3588C51.1768 22.4075 51.3049 22.4313 51.4361 22.4313C51.5672 22.4313 51.6954 22.4075 51.8215 22.3588C51.9467 22.3101 52.059 22.2406 52.1573 22.1492C52.2547 22.0578 52.3342 21.9385 52.3948 21.7915C52.4554 21.6445 52.4852 21.4796 52.4852 21.2978C52.4852 21.1169 52.4554 20.954 52.3948 20.807C52.3342 20.6609 52.2547 20.5427 52.1573 20.4523C52.059 20.3629 51.9467 20.2933 51.8215 20.2447C51.6954 20.196 51.5672 20.1721 51.4361 20.1721C51.3049 20.1721 51.1768 20.196 51.0506 20.2447C50.9254 20.2933 50.8132 20.3629 50.7148 20.4523C50.6174 20.5427 50.538 20.6609 50.4774 20.807C50.4168 20.954 50.3869 21.1169 50.3869 21.2978ZM54.3777 23.3791V19.2065H56.2057C56.4203 19.2065 56.617 19.2422 56.7949 19.3138C56.9737 19.3853 57.1217 19.4817 57.237 19.6009C57.3532 19.7201 57.4516 19.8572 57.531 20.0122C57.6115 20.1672 57.6602 20.3311 57.6771 20.503C57.687 20.5884 57.692 20.6738 57.692 20.7593C57.692 20.8447 57.687 20.9302 57.6771 21.0146C57.6602 21.1875 57.6115 21.3504 57.531 21.5054C57.4516 21.6604 57.3532 21.7965 57.238 21.9157C57.1227 22.0349 56.9757 22.1293 56.7969 22.1998C56.618 22.2704 56.4223 22.3061 56.2087 22.3061H55.4447V23.3791H54.3777V23.3791ZM55.4447 21.3524H56.2067C56.2862 21.3524 56.3587 21.3305 56.4233 21.2868C56.4889 21.2431 56.5385 21.1865 56.5723 21.1169C56.6061 21.0474 56.6309 20.9709 56.6458 20.8874C56.6558 20.8408 56.6607 20.795 56.6607 20.7503C56.6607 20.7116 56.6578 20.6719 56.6518 20.6311C56.6369 20.5457 56.6121 20.4682 56.5793 20.3987C56.5465 20.3291 56.4978 20.2715 56.4322 20.2268C56.3677 20.1821 56.2922 20.1602 56.2067 20.1602C56.1332 20.1582 56.0537 20.1572 55.9673 20.1572C55.8809 20.1572 55.7855 20.1582 55.6822 20.1592C55.5778 20.1602 55.4994 20.1602 55.4447 20.1602V21.3524V21.3524ZM58.5136 23.3791V19.2065H61.1185V20.1602H59.5806V20.7444H60.9934V21.6981H59.5806V22.4254H61.1722V23.3791H58.5136V23.3791ZM62.0823 23.3791V19.2065H63.9142C64.1119 19.2065 64.2957 19.2353 64.4646 19.2939C64.6335 19.3515 64.7766 19.43 64.8928 19.5284C65.0101 19.6257 65.1094 19.741 65.1929 19.8731C65.2743 20.0062 65.3329 20.1453 65.3677 20.2884C65.3985 20.4145 65.4144 20.5447 65.4144 20.6788C65.4144 20.6977 65.4144 20.7176 65.4144 20.7364C65.4104 20.8914 65.3846 21.0385 65.3369 21.1785C65.2892 21.3186 65.2187 21.4517 65.1263 21.5779C65.0339 21.7031 64.9236 21.8094 64.7945 21.8968L65.6131 23.2241V23.3791H64.4179L63.7016 22.1452H63.1493V23.3791H62.0823V23.3791ZM63.1493 21.1914H63.9113C63.9907 21.1914 64.0623 21.1726 64.1249 21.1348C64.1884 21.0971 64.2361 21.0474 64.2689 20.9878C64.3037 20.9292 64.3295 20.8636 64.3444 20.7891C64.3544 20.7503 64.3593 20.7116 64.3593 20.6729C64.3613 20.6381 64.3583 20.6033 64.3504 20.5685C64.3355 20.494 64.3106 20.4275 64.2779 20.3669C64.2451 20.3072 64.1964 20.2576 64.1328 20.2188C64.0682 20.1801 63.9947 20.1602 63.9113 20.1602C63.8377 20.1582 63.7583 20.1572 63.6728 20.1572C63.5874 20.1572 63.493 20.1582 63.3897 20.1592C63.2854 20.1602 63.2059 20.1602 63.1493 20.1602V21.1914V21.1914ZM65.9122 23.3791V23.2261L67.7898 19.1528H68.2488L70.1325 23.2261V23.3791H69.0903L68.8459 22.8605H67.1987L66.9543 23.3791H65.9122ZM67.5504 21.9366H68.4932L68.0164 20.8417L67.5504 21.9366ZM70.0361 20.1602V19.2065H73.1358V20.1602H72.1165V23.3791H71.0614V20.1602H70.0361V20.1602ZM73.5381 21.2978C73.5381 20.95 73.5987 20.6371 73.7209 20.3559C73.8431 20.0748 74.004 19.8483 74.2047 19.6754C74.4044 19.5035 74.6329 19.3694 74.8892 19.276C75.1456 19.1816 75.4078 19.1349 75.6751 19.1349C75.9423 19.1349 76.2046 19.1816 76.4619 19.276C76.7192 19.3694 76.9487 19.5035 77.1494 19.6754C77.3501 19.8483 77.512 20.0748 77.6342 20.3559C77.7564 20.6371 77.818 20.95 77.818 21.2978C77.818 21.6465 77.7564 21.9624 77.6342 22.2435C77.512 22.5247 77.3501 22.7522 77.1494 22.9261C76.9487 23.0989 76.7192 23.2331 76.4619 23.3274C76.2046 23.4218 75.9423 23.4685 75.6751 23.4685C75.4078 23.4685 75.1456 23.4218 74.8892 23.3274C74.6329 23.2331 74.4044 23.0989 74.2047 22.9261C74.004 22.7522 73.8431 22.5247 73.7209 22.2435C73.5987 21.9624 73.5381 21.6465 73.5381 21.2978ZM74.6289 21.2978C74.6289 21.4796 74.6588 21.6445 74.7194 21.7915C74.78 21.9385 74.8594 22.0578 74.9568 22.1492C75.0552 22.2406 75.1674 22.3101 75.2926 22.3588C75.4188 22.4075 75.5469 22.4313 75.6781 22.4313C75.8092 22.4313 75.9374 22.4075 76.0635 22.3588C76.1887 22.3101 76.301 22.2406 76.3993 22.1492C76.4967 22.0578 76.5762 21.9385 76.6368 21.7915C76.6974 21.6445 76.7272 21.4796 76.7272 21.2978C76.7272 21.1169 76.6974 20.954 76.6368 20.807C76.5762 20.6609 76.4967 20.5427 76.3993 20.4523C76.301 20.3629 76.1887 20.2933 76.0635 20.2447C75.9374 20.196 75.8092 20.1721 75.6781 20.1721C75.5469 20.1721 75.4188 20.196 75.2926 20.2447C75.1674 20.2933 75.0552 20.3629 74.9568 20.4523C74.8594 20.5427 74.78 20.6609 74.7194 20.807C74.6588 20.954 74.6289 21.1169 74.6289 21.2978ZM78.6138 23.3791V19.2065H80.4457C80.6434 19.2065 80.8272 19.2353 80.9961 19.2939C81.165 19.3515 81.3081 19.43 81.4243 19.5284C81.5416 19.6257 81.6409 19.741 81.7244 19.8731C81.8058 20.0062 81.8644 20.1453 81.8992 20.2884C81.93 20.4145 81.9459 20.5447 81.9459 20.6788C81.9459 20.6977 81.9459 20.7176 81.9459 20.7364C81.9419 20.8914 81.9161 21.0385 81.8684 21.1785C81.8207 21.3186 81.7502 21.4517 81.6578 21.5779C81.5654 21.7031 81.4551 21.8094 81.326 21.8968L82.1446 23.2241V23.3791H80.9494L80.2331 22.1452H79.6808V23.3791H78.6138V23.3791ZM79.6808 21.1914H80.4428C80.5222 21.1914 80.5938 21.1726 80.6564 21.1348C80.7199 21.0971 80.7676 21.0474 80.8004 20.9878C80.8352 20.9292 80.861 20.8636 80.8759 20.7891C80.8859 20.7503 80.8908 20.7116 80.8908 20.6729C80.8928 20.6381 80.8898 20.6033 80.8819 20.5685C80.867 20.494 80.8421 20.4275 80.8094 20.3669C80.7766 20.3072 80.7279 20.2576 80.6643 20.2188C80.5997 20.1801 80.5262 20.1602 80.4428 20.1602C80.3692 20.1582 80.2898 20.1572 80.2043 20.1572C80.1189 20.1572 80.0245 20.1582 79.9212 20.1592C79.8169 20.1602 79.7374 20.1602 79.6808 20.1602V21.1914V21.1914Z" fill="#B737EC"/>
<defs>
<radialGradient id="paint0_radial_506_3" cx="0" cy="0" r="1" gradientUnits="userSpaceOnUse" gradientTransform="translate(46 35) rotate(-140.44) scale(59.6657 79.2258)">
<stop stop-color="#5D5CE2"/>
<stop offset="0.473958" stop-color="#A334F7"/>
<stop offset="0.817708" stop-color="#E33DD5"/>
<stop offset="1" stop-color="#FF70AE"/>
</radialGradient>
</defs>
</svg>
