<svg width="71" height="85" viewBox="0 0 71 85" fill="none" xmlns="http://www.w3.org/2000/svg">
<path fill-rule="evenodd" clip-rule="evenodd" d="M40 63.3C45.5934 63.3 50.3 58.5616 50.3 52.5C50.3 46.4384 45.5934 41.7 40 41.7C34.4066 41.7 29.7 46.4384 29.7 52.5C29.7 58.5616 34.4066 63.3 40 63.3ZM40 66C47.1797 66 53 59.9558 53 52.5C53 45.0442 47.1797 39 40 39C32.8203 39 27 45.0442 27 52.5C27 59.9558 32.8203 66 40 66Z" fill="url(#paint0_radial_508_54)"/>
<path fill-rule="evenodd" clip-rule="evenodd" d="M39.5 14.3C42.7033 14.3 45.3 11.7033 45.3 8.5C45.3 5.29675 42.7033 2.7 39.5 2.7C36.2967 2.7 33.7 5.29675 33.7 8.5C33.7 11.7033 36.2967 14.3 39.5 14.3ZM39.5 17C44.1944 17 48 13.1944 48 8.5C48 3.80558 44.1944 0 39.5 0C34.8056 0 31 3.80558 31 8.5C31 13.1944 34.8056 17 39.5 17Z" fill="url(#paint1_radial_508_54)"/>
<path fill-rule="evenodd" clip-rule="evenodd" d="M61.5 40.3C64.8598 40.3 67.3 37.7752 67.3 35C67.3 32.2248 64.8598 29.7 61.5 29.7C58.1402 29.7 55.7 32.2248 55.7 35C55.7 37.7752 58.1402 40.3 61.5 40.3ZM61.5 43C66.1944 43 70 39.4183 70 35C70 30.5817 66.1944 27 61.5 27C56.8056 27 53 30.5817 53 35C53 39.4183 56.8056 43 61.5 43Z" fill="url(#paint2_radial_508_54)"/>
<path fill-rule="evenodd" clip-rule="evenodd" d="M8.5 67.3C11.7033 67.3 14.3 64.7033 14.3 61.5C14.3 58.2967 11.7033 55.7 8.5 55.7C5.29675 55.7 2.7 58.2967 2.7 61.5C2.7 64.7033 5.29675 67.3 8.5 67.3ZM8.5 70C13.1944 70 17 66.1944 17 61.5C17 56.8056 13.1944 53 8.5 53C3.80558 53 0 56.8056 0 61.5C0 66.1944 3.80558 70 8.5 70Z" fill="url(#paint3_radial_508_54)"/>
<path fill-rule="evenodd" clip-rule="evenodd" d="M64.5 82.3C66.8062 82.3 68.3 80.6231 68.3 79C68.3 77.3769 66.8062 75.7 64.5 75.7C62.1938 75.7 60.7 77.3769 60.7 79C60.7 80.6231 62.1938 82.3 64.5 82.3ZM64.5 85C68.0899 85 71 82.3137 71 79C71 75.6863 68.0899 73 64.5 73C60.9101 73 58 75.6863 58 79C58 82.3137 60.9101 85 64.5 85Z" fill="url(#paint4_radial_508_54)"/>
<path fill-rule="evenodd" clip-rule="evenodd" d="M65 58.3C66.2703 58.3 67.3 57.2703 67.3 56C67.3 54.7297 66.2703 53.7 65 53.7C63.7297 53.7 62.7 54.7297 62.7 56C62.7 57.2703 63.7297 58.3 65 58.3ZM65 61C67.7614 61 70 58.7614 70 56C70 53.2386 67.7614 51 65 51C62.2386 51 60 53.2386 60 56C60 58.7614 62.2386 61 65 61Z" fill="url(#paint5_radial_508_54)"/>
<path fill-rule="evenodd" clip-rule="evenodd" d="M33 77.3C34.2703 77.3 35.3 76.2703 35.3 75C35.3 73.7297 34.2703 72.7 33 72.7C31.7297 72.7 30.7 73.7297 30.7 75C30.7 76.2703 31.7297 77.3 33 77.3ZM33 80C35.7614 80 38 77.7614 38 75C38 72.2386 35.7614 70 33 70C30.2386 70 28 72.2386 28 75C28 77.7614 30.2386 80 33 80Z" fill="url(#paint6_radial_508_54)"/>
<path fill-rule="evenodd" clip-rule="evenodd" d="M17.5 35.3C19.0464 35.3 20.3 34.0464 20.3 32.5C20.3 30.9536 19.0464 29.7 17.5 29.7C15.9536 29.7 14.7 30.9536 14.7 32.5C14.7 34.0464 15.9536 35.3 17.5 35.3ZM17.5 38C20.5376 38 23 35.5376 23 32.5C23 29.4624 20.5376 27 17.5 27C14.4624 27 12 29.4624 12 32.5C12 35.5376 14.4624 38 17.5 38Z" fill="url(#paint7_radial_508_54)"/>
<path fill-rule="evenodd" clip-rule="evenodd" d="M61.8117 56.678L51.1873 55.3501L51.5222 52.671L62.1466 53.9989L61.8117 56.678ZM60.2421 76.2089L45.5495 62.0654L47.422 60.1202L62.1146 74.2638L60.2421 76.2089Z" fill="url(#paint8_radial_508_54)"/>
<path fill-rule="evenodd" clip-rule="evenodd" d="M57.6211 40.3557L50.9804 46.9963L49.0713 45.0871L55.7119 38.4465L57.6211 40.3557Z" fill="url(#paint9_radial_508_54)"/>
<path fill-rule="evenodd" clip-rule="evenodd" d="M41.4007 15.4949V40.2866H38.7007V15.4949H41.4007Z" fill="url(#paint10_radial_508_54)"/>
<path fill-rule="evenodd" clip-rule="evenodd" d="M21.7617 34.4624L31.5016 44.2018L29.5925 46.1111L19.8525 36.3717L21.7617 34.4624Z" fill="url(#paint11_radial_508_54)"/>
<path fill-rule="evenodd" clip-rule="evenodd" d="M15.1225 57.5824L27.9617 53.9016L28.7058 56.497L15.8666 60.1779L15.1225 57.5824Z" fill="url(#paint12_radial_508_54)"/>
<path fill-rule="evenodd" clip-rule="evenodd" d="M33.2507 71.2918L35.907 63.323L38.4684 64.1768L35.8122 72.1456L33.2507 71.2918Z" fill="url(#paint13_radial_508_54)"/>
<defs>
<radialGradient id="paint0_radial_508_54" cx="0" cy="0" r="1" gradientUnits="userSpaceOnUse" gradientTransform="translate(60.1497 88.2427) rotate(-115.154) scale(99.7028 143.431)">
<stop stop-color="#5D5CE2"/>
<stop offset="0.473958" stop-color="#A334F7"/>
<stop offset="0.817708" stop-color="#E33DD5"/>
<stop offset="1" stop-color="#FF70AE"/>
</radialGradient>
<radialGradient id="paint1_radial_508_54" cx="0" cy="0" r="1" gradientUnits="userSpaceOnUse" gradientTransform="translate(60.1497 88.2427) rotate(-115.154) scale(99.7028 143.431)">
<stop stop-color="#5D5CE2"/>
<stop offset="0.473958" stop-color="#A334F7"/>
<stop offset="0.817708" stop-color="#E33DD5"/>
<stop offset="1" stop-color="#FF70AE"/>
</radialGradient>
<radialGradient id="paint2_radial_508_54" cx="0" cy="0" r="1" gradientUnits="userSpaceOnUse" gradientTransform="translate(60.1497 88.2427) rotate(-115.154) scale(99.7028 143.431)">
<stop stop-color="#5D5CE2"/>
<stop offset="0.473958" stop-color="#A334F7"/>
<stop offset="0.817708" stop-color="#E33DD5"/>
<stop offset="1" stop-color="#FF70AE"/>
</radialGradient>
<radialGradient id="paint3_radial_508_54" cx="0" cy="0" r="1" gradientUnits="userSpaceOnUse" gradientTransform="translate(60.1497 88.2427) rotate(-115.154) scale(99.7028 143.431)">
<stop stop-color="#5D5CE2"/>
<stop offset="0.473958" stop-color="#A334F7"/>
<stop offset="0.817708" stop-color="#E33DD5"/>
<stop offset="1" stop-color="#FF70AE"/>
</radialGradient>
<radialGradient id="paint4_radial_508_54" cx="0" cy="0" r="1" gradientUnits="userSpaceOnUse" gradientTransform="translate(60.1497 88.2427) rotate(-115.154) scale(99.7028 143.431)">
<stop stop-color="#5D5CE2"/>
<stop offset="0.473958" stop-color="#A334F7"/>
<stop offset="0.817708" stop-color="#E33DD5"/>
<stop offset="1" stop-color="#FF70AE"/>
</radialGradient>
<radialGradient id="paint5_radial_508_54" cx="0" cy="0" r="1" gradientUnits="userSpaceOnUse" gradientTransform="translate(60.1497 88.2427) rotate(-115.154) scale(99.7028 143.431)">
<stop stop-color="#5D5CE2"/>
<stop offset="0.473958" stop-color="#A334F7"/>
<stop offset="0.817708" stop-color="#E33DD5"/>
<stop offset="1" stop-color="#FF70AE"/>
</radialGradient>
<radialGradient id="paint6_radial_508_54" cx="0" cy="0" r="1" gradientUnits="userSpaceOnUse" gradientTransform="translate(60.1497 88.2427) rotate(-115.154) scale(99.7028 143.431)">
<stop stop-color="#5D5CE2"/>
<stop offset="0.473958" stop-color="#A334F7"/>
<stop offset="0.817708" stop-color="#E33DD5"/>
<stop offset="1" stop-color="#FF70AE"/>
</radialGradient>
<radialGradient id="paint7_radial_508_54" cx="0" cy="0" r="1" gradientUnits="userSpaceOnUse" gradientTransform="translate(60.1497 88.2427) rotate(-115.154) scale(99.7028 143.431)">
<stop stop-color="#5D5CE2"/>
<stop offset="0.473958" stop-color="#A334F7"/>
<stop offset="0.817708" stop-color="#E33DD5"/>
<stop offset="1" stop-color="#FF70AE"/>
</radialGradient>
<radialGradient id="paint8_radial_508_54" cx="0" cy="0" r="1" gradientUnits="userSpaceOnUse" gradientTransform="translate(60.1497 88.2427) rotate(-115.154) scale(99.7028 143.431)">
<stop stop-color="#5D5CE2"/>
<stop offset="0.473958" stop-color="#A334F7"/>
<stop offset="0.817708" stop-color="#E33DD5"/>
<stop offset="1" stop-color="#FF70AE"/>
</radialGradient>
<radialGradient id="paint9_radial_508_54" cx="0" cy="0" r="1" gradientUnits="userSpaceOnUse" gradientTransform="translate(60.1497 88.2427) rotate(-115.154) scale(99.7028 143.431)">
<stop stop-color="#5D5CE2"/>
<stop offset="0.473958" stop-color="#A334F7"/>
<stop offset="0.817708" stop-color="#E33DD5"/>
<stop offset="1" stop-color="#FF70AE"/>
</radialGradient>
<radialGradient id="paint10_radial_508_54" cx="0" cy="0" r="1" gradientUnits="userSpaceOnUse" gradientTransform="translate(60.1497 88.2427) rotate(-115.154) scale(99.7028 143.431)">
<stop stop-color="#5D5CE2"/>
<stop offset="0.473958" stop-color="#A334F7"/>
<stop offset="0.817708" stop-color="#E33DD5"/>
<stop offset="1" stop-color="#FF70AE"/>
</radialGradient>
<radialGradient id="paint11_radial_508_54" cx="0" cy="0" r="1" gradientUnits="userSpaceOnUse" gradientTransform="translate(60.1497 88.2427) rotate(-115.154) scale(99.7028 143.431)">
<stop stop-color="#5D5CE2"/>
<stop offset="0.473958" stop-color="#A334F7"/>
<stop offset="0.817708" stop-color="#E33DD5"/>
<stop offset="1" stop-color="#FF70AE"/>
</radialGradient>
<radialGradient id="paint12_radial_508_54" cx="0" cy="0" r="1" gradientUnits="userSpaceOnUse" gradientTransform="translate(60.1497 88.2427) rotate(-115.154) scale(99.7028 143.431)">
<stop stop-color="#5D5CE2"/>
<stop offset="0.473958" stop-color="#A334F7"/>
<stop offset="0.817708" stop-color="#E33DD5"/>
<stop offset="1" stop-color="#FF70AE"/>
</radialGradient>
<radialGradient id="paint13_radial_508_54" cx="0" cy="0" r="1" gradientUnits="userSpaceOnUse" gradientTransform="translate(60.1497 88.2427) rotate(-115.154) scale(99.7028 143.431)">
<stop stop-color="#5D5CE2"/>
<stop offset="0.473958" stop-color="#A334F7"/>
<stop offset="0.817708" stop-color="#E33DD5"/>
<stop offset="1" stop-color="#FF70AE"/>
</radialGradient>
</defs>
</svg>
